<?xml version="1.0" standalone="no"?>
<!DOCTYPE svg PUBLIC "-//W3C//DTD SVG 20010904//EN"
 "http://www.w3.org/TR/2001/REC-SVG-20010904/DTD/svg10.dtd">
<svg version="1.0" xmlns="http://www.w3.org/2000/svg"
 width="512.000000pt" height="512.000000pt" viewBox="0 0 512.000000 512.000000"
 preserveAspectRatio="xMidYMid meet">
<metadata>
Created by potrace 1.14, written by Peter Selinger 2001-2017
</metadata>
<g transform="translate(0.000000,512.000000) scale(0.100000,-0.100000)"
fill="#000000" stroke="none">
<path d="M1940 3761 c0 -10 -4 -10 -73 -11 -27 0 -36 -4 -31 -13 5 -9 4 -9 -6
0 -15 14 -43 6 -33 -10 4 -6 1 -7 -6 -3 -17 11 -61 15 -56 5 3 -4 1 -10 -5
-14 -5 -3 -10 0 -10 7 0 11 -2 11 -9 0 -4 -7 -14 -12 -22 -10 -8 2 -13 -3 -11
-11 3 -12 1 -12 -14 0 -12 9 -15 9 -10 2 4 -7 2 -13 -3 -13 -6 0 -10 -6 -8
-12 1 -7 -4 -12 -11 -10 -8 1 -11 -2 -7 -8 3 -6 11 -7 17 -4 7 5 9 2 5 -8 -3
-9 -3 -19 1 -22 7 -8 12 -36 6 -36 -6 0 -44 39 -44 46 0 4 8 0 18 -7 15 -13
16 -12 3 3 -7 10 -17 15 -23 12 -5 -3 -16 0 -24 7 -13 10 -17 10 -24 0 -6 -11
-9 -11 -13 0 -5 12 -7 12 -15 0 -7 -10 -11 -10 -17 -1 -5 8 -12 7 -25 -5 -14
-13 -19 -13 -23 -3 -3 8 -6 5 -6 -7 -1 -16 -3 -17 -11 -5 -8 12 -10 12 -16 -3
-3 -9 -10 -17 -16 -17 -5 0 -7 4 -4 8 2 4 -4 8 -14 8 -15 0 -17 -3 -7 -15 9
-11 9 -13 0 -8 -6 4 -14 3 -18 -2 -3 -6 -13 -7 -22 -4 -10 4 -14 2 -10 -4 4
-6 0 -14 -9 -17 -24 -9 -31 -7 -14 4 8 5 11 10 5 10 -5 -1 -19 -7 -29 -15 -10
-8 -23 -12 -29 -8 -6 4 -7 1 -2 -7 5 -8 3 -11 -6 -8 -7 2 -22 -5 -32 -16 -10
-12 -16 -15 -12 -8 3 6 1 12 -4 12 -6 0 -11 -8 -11 -17 0 -15 -2 -16 -10 -3
-8 13 -10 13 -10 -2 0 -11 -6 -16 -19 -13 -14 3 -18 -1 -14 -11 3 -8 2 -14 -3
-12 -5 1 -20 -4 -34 -12 -14 -7 -27 -12 -30 -10 -3 1 -10 -6 -15 -17 -6 -11
-15 -18 -22 -16 -6 2 -14 -5 -18 -17 -3 -11 -11 -18 -16 -15 -5 4 -12 -1 -15
-10 -4 -9 -13 -14 -20 -11 -8 3 -13 2 -13 -2 3 -20 -2 -33 -11 -27 -5 3 -10 1
-10 -5 0 -6 -5 -8 -12 -4 -8 5 -9 2 -5 -10 4 -10 3 -15 -3 -11 -6 3 -10 1 -10
-5 0 -6 -5 -8 -12 -4 -8 5 -9 2 -5 -10 4 -10 3 -15 -3 -11 -6 3 -10 1 -10 -5
0 -6 -5 -8 -12 -4 -7 4 -8 3 -4 -5 4 -7 -2 -15 -16 -20 -13 -6 -20 -10 -15
-10 4 -1 -2 -11 -13 -23 -46 -52 -50 -59 -44 -70 5 -7 2 -9 -9 -5 -11 4 -14 2
-11 -7 3 -7 -3 -19 -13 -27 -17 -13 -17 -13 -3 6 14 19 14 19 -3 6 -14 -11
-15 -17 -5 -28 9 -11 9 -13 -2 -11 -7 2 -15 -3 -18 -11 -3 -9 0 -11 9 -6 8 5
11 4 6 -1 -5 -5 -14 -9 -20 -9 -7 0 -11 -11 -9 -25 2 -20 1 -22 -7 -10 -6 8
-11 13 -12 10 0 -3 -3 -14 -5 -25 -3 -11 -6 -26 -6 -33 -1 -7 -7 -11 -14 -8
-8 3 -16 0 -20 -6 -4 -7 -3 -8 4 -4 8 5 11 0 8 -16 -3 -13 -5 -27 -5 -31 -1
-5 -5 -5 -11 -2 -5 3 -10 1 -10 -4 0 -6 8 -11 18 -11 14 0 15 -2 2 -9 -8 -6
-19 -7 -25 -4 -5 4 -1 -4 10 -17 11 -13 14 -20 7 -16 -9 6 -11 1 -8 -19 4 -23
3 -25 -11 -13 -15 12 -15 11 -5 -9 8 -14 9 -24 2 -28 -6 -4 -7 -11 -4 -17 4
-7 2 -8 -4 -4 -8 5 -12 -1 -12 -14 0 -12 -4 -18 -10 -15 -5 3 -10 1 -10 -4 0
-6 5 -11 10 -11 6 0 10 -5 10 -11 0 -5 -4 -8 -8 -5 -4 2 -8 -3 -8 -13 0 -13 6
-17 20 -13 15 4 18 1 13 -11 -3 -9 -1 -19 5 -23 7 -4 8 -3 4 4 -4 7 -2 12 3
12 6 0 11 -7 11 -16 0 -8 5 -12 10 -9 6 3 10 1 10 -5 0 -6 5 -8 12 -4 8 5 9 2
5 -9 -3 -9 -3 -16 1 -16 24 4 42 -3 42 -17 0 -8 3 -13 8 -11 10 7 32 -19 24
-28 -4 -4 -2 -6 3 -5 26 6 37 -1 31 -17 -4 -10 -4 -14 0 -10 4 4 19 -3 33 -15
14 -13 19 -15 12 -5 -7 9 -9 17 -3 17 13 0 24 -29 15 -42 -3 -7 -1 -8 5 -4 6
3 15 -2 21 -11 8 -14 10 -15 11 -3 0 8 9 0 20 -17 11 -18 25 -33 30 -33 6 0 8
-5 4 -12 -4 -6 -3 -8 3 -5 10 6 65 -26 63 -37 -2 -12 27 -35 36 -28 5 4 3 0
-4 -9 -14 -18 -6 -30 14 -22 8 3 17 -2 20 -11 3 -9 10 -14 14 -11 5 3 12 0 16
-6 4 -8 3 -9 -4 -5 -7 4 -12 3 -12 -3 0 -5 9 -12 19 -16 14 -4 18 -11 14 -23
-6 -15 -4 -15 9 -4 14 11 17 10 23 -7 3 -12 11 -21 16 -21 6 0 7 -4 4 -10 -3
-5 -1 -10 5 -10 6 0 8 -5 4 -12 -5 -8 0 -7 11 2 10 8 16 10 12 4 -4 -7 0 -14
8 -18 8 -3 15 -15 15 -26 0 -12 5 -18 10 -15 5 3 10 -1 10 -10 0 -10 5 -13 12
-9 8 5 9 0 5 -15 -5 -19 -3 -20 9 -10 8 7 14 8 13 3 -4 -22 2 -34 18 -34 9 0
14 -3 10 -6 -3 -4 4 -15 16 -25 19 -16 20 -20 7 -30 -13 -9 -12 -10 3 -5 27 9
40 -3 25 -22 -11 -14 -10 -15 6 -9 15 6 17 3 13 -12 -3 -14 -1 -18 10 -14 9 4
14 0 12 -8 -3 -22 12 -49 27 -49 8 0 14 -8 14 -18 0 -10 9 -24 20 -32 11 -8
20 -20 20 -27 0 -7 5 -13 10 -13 6 0 10 -12 10 -26 0 -24 2 -25 18 -13 9 7 14
9 10 5 -4 -5 -3 -15 4 -23 9 -11 7 -12 -8 -7 -18 6 -18 6 1 -9 11 -8 23 -13
27 -11 4 3 5 -1 3 -9 -3 -7 3 -24 14 -36 12 -13 18 -28 15 -32 -3 -5 0 -9 7
-9 9 0 9 -3 0 -14 -9 -11 -8 -14 5 -12 9 0 19 -5 22 -13 3 -9 0 -11 -9 -7 -8
4 -4 -1 9 -10 12 -9 22 -25 22 -35 0 -11 6 -19 13 -19 8 0 7 -4 -3 -10 -11 -7
-11 -10 -2 -10 8 0 10 -5 6 -12 -6 -10 -5 -10 7 -1 12 10 15 8 15 -7 0 -10 -4
-17 -7 -14 -4 2 -11 -1 -15 -7 -4 -7 -3 -9 3 -6 9 6 29 -13 48 -43 8 -13 6
-13 -11 0 -12 9 -15 9 -7 1 6 -7 10 -19 9 -25 -2 -6 -1 -8 1 -3 7 11 20 8 20
-5 1 -23 8 -42 21 -56 7 -8 10 -23 6 -34 -4 -14 -2 -18 5 -14 7 5 11 -4 11
-26 1 -18 9 -46 18 -63 l17 -30 31 32 c25 25 28 33 16 38 -13 5 -12 7 3 19 10
7 15 18 11 24 -4 7 -2 12 3 12 6 0 10 3 10 8 -3 16 1 32 9 31 19 -3 25 2 12
11 -13 8 -12 10 3 10 10 0 15 5 12 10 -4 6 -11 8 -16 5 -15 -10 -10 2 8 16 14
12 16 12 8 0 -6 -10 -4 -12 4 -7 7 5 10 14 8 20 -3 7 4 18 14 25 11 6 17 16
14 21 -3 6 0 10 7 10 9 0 9 3 -2 10 -8 5 -13 10 -10 11 3 0 13 2 23 4 14 3 17
-2 15 -22 -2 -15 3 -27 10 -29 7 -1 8 0 2 3 -12 5 -14 24 -2 22 19 -3 23 2 12
16 -12 15 -5 20 25 16 6 -1 1 6 -10 15 -16 14 -17 16 -2 11 12 -4 17 -1 18 11
1 9 5 4 9 -13 4 -16 11 -38 15 -47 4 -11 3 -18 -4 -18 -6 0 -11 -5 -11 -10 0
-6 3 -9 8 -9 19 3 25 -2 12 -11 -8 -5 -10 -10 -5 -10 6 0 10 -21 9 -50 -1 -27
2 -50 8 -50 5 0 6 -6 2 -12 -5 -8 0 -7 11 2 15 12 17 12 10 1 -6 -11 -4 -13 8
-8 11 4 17 1 17 -9 0 -12 2 -12 14 -2 8 7 11 18 8 23 -3 6 1 4 9 -2 12 -10 18
-10 29 0 8 8 11 8 7 1 -4 -7 0 -15 9 -18 8 -3 13 -2 10 3 -3 4 8 8 25 9 19 0
27 -3 23 -10 -4 -7 -2 -8 5 -4 6 4 9 12 6 17 -4 5 -1 9 4 9 6 0 11 -4 11 -10
0 -5 5 -10 11 -10 5 0 8 4 5 8 -3 5 1 9 9 9 8 0 15 -7 15 -14 0 -8 5 -11 10
-8 6 4 8 10 6 14 -3 4 1 8 9 8 8 0 12 -4 8 -10 -3 -5 5 -7 18 -6 13 2 30 -1
38 -5 9 -6 12 -5 8 1 -4 6 0 14 9 17 8 3 12 2 9 -4 -9 -14 29 -12 44 3 11 10
13 9 7 -1 -5 -8 1 -12 19 -12 17 0 24 4 19 11 -3 6 5 3 19 -6 16 -10 34 -14
47 -10 12 4 27 2 35 -5 10 -8 15 -8 21 1 5 9 10 7 15 -7 7 -17 8 -17 8 -1 1
10 6 15 11 12 6 -4 8 -9 6 -13 -2 -4 7 -7 20 -7 13 0 24 4 24 8 0 5 5 5 12 1
7 -4 28 -7 48 -6 26 2 31 0 20 -8 -8 -5 -10 -10 -5 -10 6 0 16 5 23 12 9 9 12
9 12 -1 0 -10 3 -11 14 -2 10 8 16 9 21 1 3 -6 11 -8 16 -4 5 3 16 0 24 -6 8
-6 18 -9 24 -6 5 3 12 0 14 -6 4 -9 6 -9 6 1 1 11 5 10 16 -5 15 -19 15 -19 9
1 -4 16 -2 15 9 -4 9 -15 17 -20 21 -12 5 8 11 7 20 -2 8 -6 12 -15 9 -19 -2
-5 1 -8 6 -8 6 0 11 6 11 13 0 6 5 4 11 -6 6 -10 15 -14 22 -10 7 4 5 -2 -3
-12 -10 -13 -11 -16 -2 -11 8 5 19 1 28 -10 9 -11 13 -13 9 -7 -3 7 -1 13 4
13 6 0 11 -7 11 -15 0 -17 25 -20 35 -5 4 6 11 7 17 4 7 -5 8 -2 3 6 -6 10 -4
12 8 7 9 -3 19 -2 22 4 4 5 3 9 -2 8 -20 -3 -27 2 -13 11 11 7 12 10 2 10 -10
0 -9 4 3 16 10 11 12 20 6 28 -6 7 -4 22 4 41 13 29 13 29 15 5 l1 -25 15 25
c9 14 13 17 10 6 -5 -13 -2 -17 9 -12 8 3 14 2 14 -2 -3 -19 2 -23 16 -12 12
10 15 9 15 -5 0 -11 5 -15 16 -11 8 3 12 2 9 -4 -3 -6 0 -10 7 -10 10 0 9 -3
-2 -11 -13 -9 -12 -10 2 -5 24 7 48 -3 48 -19 0 -8 5 -17 12 -21 7 -4 8 -3 4
4 -4 7 -3 12 3 12 5 0 13 -9 16 -21 6 -17 9 -18 23 -7 12 10 14 10 8 1 -4 -8
-2 -13 4 -13 6 0 8 -5 4 -12 -5 -8 -2 -9 9 -5 11 4 17 1 17 -9 0 -9 5 -12 12
-8 8 5 9 2 5 -10 -6 -14 -3 -15 13 -6 11 6 20 7 19 3 -4 -21 2 -33 17 -33 8 0
12 -4 9 -10 -3 -6 1 -7 9 -4 10 4 16 1 16 -9 0 -24 24 -39 40 -24 8 8 11 8 7
1 -12 -20 47 -37 70 -21 7 5 17 6 22 2 7 -3 8 0 5 9 -3 9 -11 16 -16 16 -7 0
-6 5 1 13 8 10 7 17 -2 27 -9 10 -9 11 1 6 15 -9 16 10 2 19 -8 5 -8 11 -1 19
6 7 7 17 3 21 -4 5 -1 5 6 1 7 -4 10 -11 8 -15 -3 -4 6 -7 19 -7 13 0 21 4 19
8 -3 5 -11 5 -17 2 -7 -4 -8 -3 -4 2 5 5 14 9 20 9 15 0 17 164 2 184 -7 11
-7 13 1 8 7 -4 12 2 12 18 0 16 -5 22 -12 18 -8 -5 -7 -2 1 8 16 20 17 31 1
40 -7 5 -8 9 -2 9 12 0 12 28 1 47 -4 6 -3 14 1 17 10 6 9 36 -1 52 -3 6 -3
14 1 18 11 12 9 70 -3 78 -5 4 1 8 15 9 22 0 23 1 6 8 -18 7 -18 8 -3 14 9 3
17 12 17 19 0 9 -3 9 -10 -2 -7 -12 -9 -10 -7 7 0 12 5 19 10 16 5 -3 6 9 4
27 -5 27 -4 30 10 18 15 -12 15 -11 4 10 -9 16 -9 27 0 43 9 17 8 20 -3 13
-11 -7 -11 -5 0 9 8 9 11 20 9 25 -3 4 -2 14 3 22 5 9 5 19 -2 27 -8 10 -4 15
13 22 13 5 18 10 11 10 -7 1 -10 6 -7 11 3 6 1 10 -4 10 -6 0 -2 9 10 21 13
13 17 24 11 32 -5 7 -4 22 4 37 8 14 14 21 15 15 0 -5 4 -1 8 10 5 11 4 25 -1
32 -6 7 -5 14 3 19 8 5 9 3 4 -6 -5 -9 -4 -11 3 -6 7 4 12 16 12 27 0 11 4 18
9 14 6 -3 8 4 6 15 -2 12 2 23 11 27 8 3 13 12 10 19 -3 8 0 14 6 14 6 0 8 3
5 7 -4 3 -2 12 4 19 6 8 9 20 6 28 -4 11 -1 13 11 9 9 -3 14 -2 9 2 -4 5 0 19
8 32 12 17 12 23 3 24 -7 0 -3 4 10 9 12 5 22 16 22 25 0 8 5 15 11 15 5 0 7
5 4 10 -3 6 -2 10 4 10 6 0 7 7 4 17 -4 10 -2 14 4 10 12 -7 28 20 32 54 0 5
5 8 10 4 6 -3 8 3 6 14 -3 15 1 18 18 14 22 -5 22 -5 2 10 -18 15 -18 16 -3
17 10 0 20 11 24 25 3 14 10 22 15 19 5 -3 9 2 9 11 0 9 4 14 9 11 5 -4 7 4 4
16 -4 19 -3 20 6 8 10 -13 11 -13 12 0 1 8 1 19 0 24 -1 5 5 6 13 3 10 -4 14
0 11 14 -3 17 5 24 27 20 4 0 4 7 1 16 -5 12 -3 14 8 8 11 -7 11 -5 -1 10 -8
10 -10 16 -3 12 6 -4 18 1 26 13 7 11 18 17 23 12 4 -4 2 1 -5 11 -12 15 -12
17 4 11 12 -5 16 -4 12 3 -6 10 19 28 34 25 4 -1 4 8 1 20 -3 13 -1 19 5 15 6
-4 14 4 17 19 6 22 9 24 22 13 8 -7 14 -8 13 -3 -4 25 2 36 18 30 10 -4 14 -4
10 0 -4 4 -2 13 4 21 6 7 8 13 3 13 -4 0 5 13 21 30 15 16 32 27 37 24 5 -3 7
0 6 8 -2 7 3 12 10 10 7 -1 17 9 22 24 6 14 14 22 20 19 9 -5 14 7 12 26 -1 4
6 6 16 5 11 -1 16 6 16 17 -2 14 1 15 12 6 11 -9 14 -8 14 4 0 9 5 19 12 23 6
4 8 3 5 -3 -3 -5 0 -10 7 -10 8 0 12 8 9 21 -4 17 -3 18 6 6 10 -14 15 -8 12
13 -1 4 10 12 24 19 13 6 22 15 19 20 -3 4 -10 6 -15 3 -5 -3 -6 2 -2 11 5 13
3 15 -7 9 -10 -6 -12 -4 -7 9 5 13 1 19 -13 23 -11 3 -20 8 -20 12 0 17 32 49
55 55 14 4 23 11 20 16 -3 6 5 14 19 20 14 5 26 12 26 15 0 4 -5 3 -12 -1 -8
-5 -9 -2 -5 9 4 10 1 17 -6 17 -8 0 -7 4 3 11 12 9 11 10 -7 6 -15 -3 -20 -1
-16 9 3 10 0 12 -10 9 -8 -4 -22 1 -31 10 -9 9 -16 13 -16 8 0 -4 -5 0 -11 10
-8 14 -14 16 -25 6 -11 -9 -14 -9 -14 0 0 7 -5 9 -10 6 -6 -4 -9 -1 -8 6 2 7
-1 13 -7 14 -5 0 -16 4 -24 9 -10 7 -12 6 -6 -3 6 -10 3 -11 -14 -1 -12 6 -19
15 -16 20 4 6 -1 7 -11 3 -12 -4 -15 -3 -10 5 9 16 -7 15 -22 0 -9 -9 -12 -8
-12 5 0 10 -5 14 -14 11 -8 -3 -23 3 -34 14 -12 12 -31 18 -55 18 -31 -2 -34
1 -24 14 6 8 8 12 3 8 -5 -4 -18 -3 -29 3 -15 9 -18 8 -12 -3 3 -7 0 -5 -8 5
-10 12 -17 14 -22 8 -3 -6 -11 -11 -16 -11 -6 0 -7 5 -4 10 4 6 -5 10 -19 10
-14 0 -26 5 -26 11 0 5 -4 7 -10 4 -5 -3 -10 -2 -10 3 0 5 -11 8 -25 7 -14 -2
-25 1 -25 6 0 6 -7 6 -19 0 -14 -8 -24 -5 -42 12 -26 24 -28 25 -40 5 -7 -10
-9 -8 -10 7 0 11 -3 14 -6 8 -3 -8 -11 -10 -21 -5 -9 5 -24 8 -32 7 -20 -2
-41 15 -34 27 3 5 -4 4 -15 -4 -18 -11 -23 -11 -31 2 -9 13 -10 13 -10 0 0
-12 -2 -13 -9 -1 -7 11 -9 11 -14 0 -4 -10 -6 -10 -6 -1 -1 7 -14 12 -31 12
-16 0 -30 5 -30 11 0 6 -6 9 -12 6 -7 -2 -21 0 -32 5 -14 7 -16 7 -11 -2 5 -9
2 -10 -11 -3 -11 5 -29 8 -41 8 -12 -1 -24 4 -27 12 -3 8 -10 12 -15 8 -5 -3
-12 -1 -16 5 -4 7 -13 6 -27 -1 -15 -8 -22 -8 -28 1 -6 9 -13 9 -28 1 -14 -7
-23 -8 -27 -1 -3 5 -11 10 -16 10 -6 0 -7 -6 -3 -12 5 -9 3 -9 -9 1 -14 11
-18 11 -23 -2 -3 -9 -13 -18 -22 -22 -14 -5 -15 -4 -4 6 6 7 12 18 12 23 0 6
-10 -4 -22 -23 -20 -32 -22 -33 -36 -15 -13 17 -14 17 -9 1 5 -14 2 -17 -16
-15 -12 2 -28 7 -36 12 -10 6 -12 5 -7 -2 4 -7 2 -12 -3 -12 -6 0 -11 5 -11
11 0 8 -4 8 -14 0 -11 -9 -16 -9 -22 0 -5 8 -3 10 7 4 8 -5 11 -4 6 0 -10 11
-48 14 -41 3 8 -12 -10 -10 -24 4 -8 8 -12 8 -12 1 0 -15 -33 -11 -48 7 -10
13 -11 12 -6 -4 6 -16 4 -17 -14 -7 -19 10 -22 9 -22 -6 0 -15 -2 -16 -10 -3
-8 13 -10 13 -10 1 0 -11 -4 -9 -15 5 -15 19 -15 19 -8 -1 3 -11 3 -17 -2 -13
-4 4 -14 0 -22 -10 -8 -9 -11 -11 -7 -3 4 9 3 12 -4 7 -6 -3 -9 -15 -7 -26 2
-11 1 -19 -3 -19 -20 3 -25 -2 -12 -11 10 -6 11 -10 3 -10 -7 0 -13 -5 -13
-11 0 -5 6 -7 13 -3 7 4 9 3 4 -2 -5 -5 -14 -9 -19 -9 -6 0 -13 -6 -16 -14 -3
-9 0 -11 9 -5 12 7 12 5 0 -9 -7 -9 -11 -23 -8 -31 4 -10 1 -13 -8 -10 -10 4
-13 0 -10 -15 3 -15 -1 -21 -13 -21 -10 0 -13 -3 -7 -8 15 -10 18 -35 4 -26
-9 5 -10 2 -6 -9 4 -12 1 -17 -11 -18 -9 0 -12 -3 -6 -5 14 -6 6 -44 -8 -44
-5 0 -6 5 -2 12 5 7 3 8 -5 4 -9 -6 -8 -13 6 -28 18 -21 18 -21 -7 -8 -32 17
-42 32 -27 42 8 5 5 8 -8 8 -17 0 -17 2 -5 10 12 7 12 10 1 10 -9 0 -11 8 -7
26 4 14 3 23 -1 21 -4 -3 -8 8 -9 24 -1 18 3 26 10 23 6 -3 3 1 -7 9 -14 11
-15 16 -5 20 10 4 10 8 -2 16 -13 10 -13 12 0 21 12 8 12 10 1 10 -8 0 -11 7
-8 20 3 10 -1 24 -9 31 -8 6 -11 16 -7 23 4 6 -1 5 -10 -3 -14 -11 -17 -11
-18 0 -1 8 -1 18 0 22 1 4 -7 3 -17 -2 -10 -5 -24 -6 -32 -1 -8 5 -18 6 -22 4
-4 -3 -8 -1 -8 3 0 5 -12 10 -26 11 -15 1 -34 8 -42 15 -11 8 -13 8 -9 0 10
-17 -19 -10 -40 9 -13 12 -23 14 -35 7 -10 -6 -19 -6 -23 0 -3 5 -14 8 -25 6
-11 -2 -22 1 -25 6 -4 5 -11 7 -16 4 -5 -4 -12 1 -15 9 -3 9 -11 13 -16 10 -6
-4 -5 -10 3 -15 10 -6 10 -9 2 -9 -6 0 -15 5 -18 10 -9 15 -27 12 -19 -2 6
-10 4 -10 -7 0 -7 6 -21 12 -32 12 -11 0 -15 4 -11 12 5 7 3 8 -7 2 -19 -12
-39 -14 -39 -4 0 5 -12 7 -27 6 -16 -2 -33 3 -41 13 -7 9 -11 11 -8 5 3 -7 -5
-14 -19 -16 -18 -4 -25 -1 -26 11 0 10 -2 12 -6 4 -2 -7 -11 -13 -19 -13 -8 0
-14 6 -14 13 0 8 -2 9 -8 1 -9 -15 -63 -15 -81 0 -12 8 -13 8 -7 -1 4 -8 1
-13 -8 -13 -9 0 -16 5 -16 11 0 5 -5 7 -10 4 -6 -4 -8 -10 -5 -15 3 -5 -7 -5
-22 -1 -16 4 -40 4 -56 0 -15 -4 -25 -3 -22 1 3 5 1 11 -5 15 -5 3 -10 2 -10
-4z m1264 -204 c13 13 37 11 43 -3 3 -9 10 -11 22 -5 13 7 17 5 18 -10 1 -11
-2 -17 -8 -14 -8 6 -14 -16 -10 -38 1 -5 -3 -6 -8 -3 -5 3 -15 -2 -22 -11 -10
-12 -10 -14 -1 -9 18 11 15 -1 -7 -23 -11 -11 -23 -16 -27 -13 -5 4 -2 -1 5
-10 12 -16 11 -18 -4 -18 -11 0 -15 -5 -11 -15 3 -9 0 -15 -10 -15 -11 0 -14
-5 -10 -16 4 -12 2 -15 -9 -10 -13 5 -14 2 -4 -16 10 -18 9 -20 -5 -15 -9 4
-15 3 -15 -1 3 -19 -2 -33 -10 -28 -14 9 -21 -20 -8 -34 9 -10 9 -11 0 -6 -8
5 -13 1 -13 -9 0 -9 -4 -13 -10 -10 -5 3 -10 1 -10 -4 0 -6 6 -11 13 -11 8 0
9 -2 1 -8 -6 -4 -15 -22 -19 -39 -3 -18 -11 -33 -16 -33 -6 0 -7 5 -4 10 3 6
2 10 -3 10 -5 0 -8 -23 -7 -50 2 -44 -1 -53 -24 -71 -14 -11 -21 -18 -14 -15
6 4 15 1 19 -5 5 -8 3 -9 -6 -4 -10 6 -12 3 -8 -13 4 -14 2 -20 -5 -15 -6 4
-8 0 -5 -8 4 -10 -1 -15 -16 -15 -17 0 -22 5 -20 21 1 11 3 24 3 28 1 5 6 5
12 1 8 -4 7 -9 -2 -15 -8 -5 -9 -9 -3 -9 21 0 24 14 7 32 -9 10 -11 18 -5 18
6 0 9 7 6 15 -4 8 -1 15 6 15 6 0 8 4 5 10 -3 5 2 22 12 37 17 28 17 28 -2 13
-14 -10 -12 -6 5 13 22 25 22 27 5 22 -18 -6 -18 -5 -4 7 21 17 37 64 19 53
-9 -5 -11 -4 -6 3 4 7 15 12 24 12 10 0 13 3 7 8 -16 11 -18 35 -2 29 10 -4
12 3 9 24 -3 20 0 29 9 29 11 0 11 3 -1 11 -12 9 -10 10 8 6 19 -5 21 -3 11 9
-8 10 -8 18 0 27 6 8 9 23 6 35 -2 12 1 22 6 22 6 0 7 5 3 12 -5 7 -2 9 9 5
11 -4 14 -2 10 8 -3 8 -10 12 -17 9 -6 -3 -4 0 4 8 8 7 15 20 15 28 0 8 5 14
12 13 7 -2 10 4 7 12 -9 21 15 48 31 35 6 -5 15 -7 19 -3z m-2110 -105 c3 -5
-1 -9 -9 -9 -8 0 -12 4 -9 9 3 4 7 8 9 8 2 0 6 -4 9 -8z m1844 -153 c3 -12 2
-12 -6 0 -8 11 -10 11 -15 0 -4 -10 -6 -8 -6 4 -1 21 21 18 27 -4z m1137 -908
c3 -5 2 -12 -3 -15 -5 -3 -9 1 -9 9 0 17 3 19 12 6z m-2664 -538 c13 -16 12
-17 -3 -4 -10 7 -18 15 -18 17 0 8 8 3 21 -13z m599 -393 c0 -5 -5 -10 -11
-10 -5 0 -7 5 -4 10 3 6 8 10 11 10 2 0 4 -4 4 -10z m-80 -94 c0 -3 -4 -8 -10
-11 -5 -3 -10 -1 -10 4 0 6 5 11 10 11 6 0 10 -2 10 -4z m-100 -209 c0 -2 -11
-14 -24 -26 -19 -18 -24 -20 -29 -7 -4 10 -1 13 7 10 7 -3 19 2 26 11 12 14
20 19 20 12z m1784 -203 c3 -8 2 -12 -4 -9 -6 3 -10 10 -10 16 0 14 7 11 14
-7z"/>
<path d="M3165 3549 c-4 -6 -5 -12 -2 -15 2 -3 7 2 10 11 7 17 1 20 -8 4z"/>
<path d="M3030 3060 c-13 -8 -12 -10 3 -10 9 0 17 5 17 10 0 12 -1 12 -20 0z"/>
<path d="M4100 3606 c0 -2 8 -10 18 -17 15 -13 16 -12 3 4 -13 16 -21 21 -21
13z"/>
<path d="M4685 3230 c-3 -6 1 -7 9 -4 18 7 21 14 7 14 -6 0 -13 -4 -16 -10z"/>
<path d="M4470 2895 c-7 -9 -11 -17 -9 -20 3 -2 10 5 17 15 14 24 10 26 -8 5z"/>
<path d="M3865 1940 c-3 -6 1 -7 9 -4 18 7 21 14 7 14 -6 0 -13 -4 -16 -10z"/>
</g>
</svg>
